<?xml version="1.0" encoding="UTF-8"?>
<svg id="Layer_1" data-name="Layer 1" xmlns="http://www.w3.org/2000/svg" viewBox="0 0 917.18 202.59">
  <defs>
    <style>
      .cls-1 {
        fill: #939393;
      }

      .cls-2 {
        letter-spacing: -.02em;
      }

      .cls-2, .cls-3, .cls-4, .cls-5, .cls-6 {
        isolation: isolate;
      }

      .cls-2, .cls-3, .cls-4, .cls-7, .cls-6 {
        fill: #afafac;
      }

      .cls-2, .cls-3, .cls-4, .cls-6 {
        font-family: Arial-BoldMT, Arial;
        font-size: 27.51px;
        font-weight: 700;
      }

      .cls-3 {
        letter-spacing: -.03em;
      }

      .cls-4 {
        letter-spacing: 0em;
      }

      .cls-5, .cls-8 {
        fill: none;
      }

      .cls-9 {
        fill: #afafaf;
      }

      .cls-6 {
        letter-spacing: -.02em;
      }

      .cls-10, .cls-11 {
        fill: #b0b0ad;
      }

      .cls-8 {
        stroke: #afafac;
        stroke-miterlimit: 10;
        stroke-width: .53px;
      }

      .cls-11 {
        fill-rule: evenodd;
      }
    </style>
  </defs>
  <g id="content">
    <path class="cls-10" d="m283.69,0c-22.92,0-41.5,18.58-41.5,41.5s18.58,41.5,41.5,41.5,41.5-18.58,41.5-41.5S306.6,0,283.69,0Zm-12.87,22.41h5.82v8.35c5.95-3.9,13.92-2.24,17.81,3.71,3.9,5.95,2.24,13.92-3.71,17.81-5.95,3.9-13.92,2.24-17.81-3.71-1.38-2.09-2.11-4.55-2.11-7.07v-19.09Zm-14.1,6.22c7.11,0,12.87,5.76,12.87,12.87v12.87h-5.82v-2.12c-2.09,1.38-4.55,2.11-7.05,2.12-7.11,0-12.87-5.76-12.87-12.87s5.76-12.87,12.87-12.87h0Zm53.95,0c5.98,0,11.17,4.13,12.52,9.96h-6.09c-1.6-3.55-5.79-5.13-9.34-3.52s-5.13,5.79-3.52,9.34c1.61,3.55,5.79,5.13,9.34,3.52,1.57-.71,2.82-1.96,3.52-3.52h6.09c-1.64,6.91-8.56,11.2-15.49,9.55-5.79-1.37-9.87-6.51-9.9-12.46,0-7.11,5.76-12.87,12.87-12.87h0Zm-53.95,5.82c-3.9,0-7.05,3.16-7.05,7.05s3.16,7.05,7.05,7.05,7.05-3.16,7.05-7.05-3.16-7.05-7.05-7.05Zm26.97,0c-3.9,0-7.05,3.16-7.05,7.05s3.16,7.05,7.05,7.05,7.05-3.16,7.05-7.05-3.16-7.05-7.05-7.05Z"/>
  </g>
  <g>
    <path class="cls-11" d="m0,14.85h39.88v57.15H0V14.85Zm5.75,51.4h28.37V20.61H5.75v45.64h0Z"/>
    <path class="cls-11" d="m66.38,40.49h-2.47c-3.24-4.58-6.45-9.13-9.66-14.27h-.02v14.27h-2.73v-19.89h2.47c3.24,4.55,6.45,9.06,9.63,14.18h.06v-14.18h2.73v19.89h0Zm6.48-7.87c.79-2.62,1.59-5.03,2.3-8.1h.06c.79,3.07,1.51,5.49,2.24,8.1h-4.6Zm1.3-12.02l-6.87,19.89h2.96l1.73-5.43h6l1.56,5.43h3.81l-6.34-19.89h-2.84Zm12.39,19.89v-17.23h-5.23v-2.67h13.87v2.67h-5.23v17.23h-3.41Zm9.74-19.89h3.39v19.89h-3.39v-19.89Zm13.9,17.39c-3.56,0-4.81-3.92-4.81-7.73s1.42-7.16,4.81-7.16,4.8,3.5,4.8,7.16-1.25,7.73-4.8,7.73Zm0,2.84c5.2,0,8.44-4.63,8.44-10.57,0-5.57-3.57-10-8.44-10s-8.45,4.43-8.45,10c0,5.94,3.25,10.57,8.45,10.57Zm25.4-.34h-2.47c-3.24-4.58-6.45-9.13-9.66-14.27h-.03v14.27h-2.72v-19.89h2.47c3.24,4.55,6.45,9.06,9.63,14.18h.06v-14.18h2.73v19.89h0Zm6.48-7.87c.8-2.62,1.59-5.03,2.3-8.1h.06c.8,3.07,1.5,5.49,2.24,8.1h-4.6,0Zm1.31-12.02l-6.88,19.89h2.96l1.73-5.43h6l1.56,5.43h3.81l-6.34-19.89h-2.84,0Zm10.17,0h3.39v17.22h6.73v2.67h-10.12v-19.89Zm-89.28,36.53v8.21c-1.82.71-3.73,1.22-5.65,1.22-5.86,0-9.55-4.55-9.55-10.4,0-5.43,3.69-10.17,9.66-10.17,1.84,0,3.69.69,4.83,1.54l-1.11,2.36c-.91-.56-2.33-1.05-3.64-1.05-3.63,0-6.11,2.87-6.11,7.39s2.84,7.5,5.77,7.5c.91,0,1.68-.11,2.39-.48v-6.11h3.4Zm12.2-8.13h-5.69v5.45h5.57v2.67h-5.57v6.42h6.71v2.68h-10.12v-19.89h9.1v2.68Zm10.51,14.72c-3.56,0-4.81-3.92-4.81-7.73s1.42-7.16,4.81-7.16,4.8,3.5,4.8,7.16-1.25,7.73-4.8,7.73Zm0,2.84c5.2,0,8.43-4.63,8.43-10.57,0-5.57-3.58-10-8.43-10s-8.44,4.44-8.44,10c0,5.94,3.23,10.57,8.44,10.57Zm24.8-9.43v8.21c-1.82.71-3.72,1.22-5.65,1.22-5.85,0-9.55-4.55-9.55-10.4,0-5.43,3.7-10.17,9.66-10.17,1.85,0,3.69.69,4.83,1.54l-1.11,2.36c-.91-.56-2.32-1.05-3.63-1.05-3.64,0-6.12,2.87-6.12,7.39s2.84,7.5,5.77,7.5c.91,0,1.68-.11,2.39-.48v-6.11h3.41Zm6.54-8.13h1.5c2.01,0,3.15,1.16,3.15,3.21,0,2.67-1.62,3.86-3.24,3.95-.34.03-1.14.06-1.42.09v-7.24h0Zm8.64,17.22l-4.01-8.24c2.19-1.16,3.45-3.53,3.45-5.91,0-3.87-2.36-5.74-6.17-5.74h-5.31v19.89h3.42v-7.5h1.53l3.21,7.5h3.9Zm5.62-7.87c.79-2.62,1.59-5.03,2.3-8.1h.06c.8,3.07,1.5,5.48,2.24,8.1h-4.6,0Zm1.3-12.02l-6.88,19.89h2.96l1.74-5.43h6l1.55,5.43h3.82l-6.34-19.89h-2.84Zm15.57,0h-5.31v19.89h3.41v-7.5h1.53c4.07,0,6.54-3.3,6.54-6.65,0-3.87-2.36-5.74-6.17-5.74h0Zm-.48,9.83c-.35.03-1.19.06-1.42.08v-7.24h1.53c1.99,0,3.13,1.16,3.13,3.21,0,2.67-1.61,3.86-3.24,3.95Zm22.44,10.06h-3.41v-9.57h-7.08v9.57h-3.37v-19.89h3.37v7.64h7.08v-7.59h3.41v19.84h0Zm3.27-19.89h3.39v19.89h-3.39v-19.89Zm18.73,3.61c-.83-.51-2.18-1.11-3.5-1.11-3.47,0-5.99,2.87-5.99,7.39s2.78,7.5,6.08,7.5c1.21,0,2.39-.35,3.41-1l.94,2.47c-1.03.71-2.84,1.36-4.49,1.36-5.86,0-9.55-4.55-9.55-10.4,0-5.43,3.66-10.17,9.6-10.17,1.77,0,3.41.74,4.58,1.54l-1.08,2.42h0Z"/>
  </g>
  <g id="content-2" data-name="content">
    <g>
      <path class="cls-9" d="m657.15,57.13c-1.21.93-3.31,2.75-4.44,3.92l-4.09-3.68v-.24c.54-.15.65-.65.65-1.26v-9.98c-.95-.69-2.88-2.36-3.94-3.33l-1.32,1.17v12.14l1.02.91c.19.17.43.41.8.41.43,0,.74-.15,1.17-.54l.41.45c-1.13.8-3.18,2.55-4.48,3.92l-4.09-3.72v-.19c.41-.15.65-.43.65-1.06v-10.13c-1-.76-3.05-2.53-3.94-3.38l-1.32,1.15v12.19l.95.84c.32.28.56.5.91.5.41,0,.69-.09,1.15-.54l.41.45c-1.32,1.02-3.18,2.66-4.48,3.92l-4.09-3.64v-.24c.45-.11.65-.5.65-1.17v-12.08l-1.06-.84c-.26-.22-.52-.35-.76-.35-.32,0-.69.17-1.15.56l-.41-.54c1.21-.82,3.16-2.58,4.52-3.87l3.61,3.38,3.87-3.38c1.82,1.52,3.94,3.27,5.19,4.03l4.59-4.03c1.71,1.41,4.85,3.92,6.45,4.87v.19c-.45.15-.76.5-.76,1.17v10.71l.84.8c.28.28.63.56,1,.56.45,0,.8-.24,1.17-.56l.39.5h-.09Z"/>
      <path class="cls-9" d="m626.84,33.71l-1.52,1.36c-1.23,1.1-2.21,1.6-3.16,1.6-.71,0-1.41-.35-2.16-1-.26-.24-.52-.45-.87-.45-.41,0-.76.19-1.1.54l-.41-.45,4.52-3.92,2.27,2.01c.26.24.63.39.95.39.39,0,.8-.22,1.06-.54l.41.45Z"/>
      <path class="cls-9" d="m627.75,57.13c-1.15.93-3.38,2.86-4.48,3.94l-4.13-3.68v-.24c.43-.13.65-.54.65-1.06v-12.23l-.95-.76c-.28-.22-.43-.39-.8-.39-.41,0-.82.19-1.17.54l-.41-.5c1.13-.82,3.2-2.53,4.52-3.92l4.09,3.53v.19c-.35.13-.76.41-.76,1.1v12.19l1.06.95c.26.24.58.39.91.39.39,0,.71-.19,1.06-.54l.41.45v.02Z"/>
      <path class="cls-9" d="m548.32,57.13c-1.1.84-3.07,2.53-4.48,3.94l-4.09-3.72v-.24c.37-.13.61-.54.61-1.17v-19.41l-1.1-.84c-.24-.17-.48-.35-.69-.35-.48,0-.82.32-1.15.65l-.45-.5c1.36-1.02,3.33-2.73,4.55-3.98l4.09,3.53v.15c-.39.11-.76.69-.76,1.32v19.37l1.1,1c.26.24.61.35.91.35.35,0,.74-.26,1.02-.54l.41.45h.04Z"/>
      <path class="cls-9" d="m503.87,57.13c-1.21.89-3.42,2.79-4.48,3.92l-4.09-3.64v-.24c.39-.13.65-.48.65-1.36v-9.87c-1.02-.78-2.94-2.42-3.94-3.38l-1.32,1.15v12.19l1.21,1.06c.48.41,1.23.32,1.82-.24l.39.41c-1.26.93-3.29,2.73-4.48,3.92l-4.09-3.64v-.24c.41-.17.65-.54.65-1.15v-12.14l-1.1-.8c-.26-.17-.41-.35-.65-.35-.52,0-.87.28-1.17.54l-.45-.5c1.08-.76,2.9-2.32,4.52-3.87l3.61,3.38,3.87-3.38c1.36,1.17,4.76,3.77,6.45,4.89v.19c-.61.15-.76.61-.76.87v11.02l1.3,1.17c.22.19.95.3,1.71-.41l.41.5h-.06Z"/>
      <path class="cls-9" d="m687.71,55.59c-2.79,1.34-6.38,3.64-8.42,5.48-1.19-.95-2.73-1.93-4.55-1.93-1.71,0-2.25.61-2.25,1.17,0,.37.54.32.54.84,0,.24-.26.54-.56.54-.39,0-.8-.41-.8-1.15,0-1.13.67-2.6,2.73-4.89l3.53-3.92-4.52-2.32v-.24c.37-.11.5-.41.5-.84v-3.38c0-.35-.22-.71-.5-.87v-.26c2.92-1.45,6.28-3.31,8.2-4.93.52.56,1.93,1.36,3.38,1.36,1.21,0,1.36-.37,1.36-.8,0-.24-.19-.3-.19-.5,0-.32.17-.45.41-.45.37,0,.65.26.65.95,0,1.8-1.71,4.03-4.52,4.03-1.99,0-3.22-.63-4.07-1.62l-.19.11v4.98l2.77,1.32,1.17-1.17,5.32,2.71v.24c-.28.13-.45.39-.45.71v3.83c0,.5.22.67.45.8v.24l.02-.04Zm-5.02,1.97v-5.65l-2.62-1.21-5.5,5.84.09.04c.89-.48,2.19-.71,3.98-.71,1.41,0,3.12.78,3.98,1.75l.09-.04-.02-.02Z"/>
      <path class="cls-9" d="m672.12,46.09l-8.85,5.58v3.48c1.1.39,3.48,1.62,4.63,2.27l2.23-2.12c.11-.65.35-1.3,1.02-1.3.32,0,.5.28.5.54,0,.32-.19.56-.35.71l-5.78,5.74c-1.69-1.06-5.45-3.03-7.4-3.87v-.24c.39-.15.56-.54.56-1v-10.93c0-.48-.24-.91-.61-1v-.24c2.58-1.21,6-3.18,8.7-4.87,1.56,2.32,3.83,5.41,5.32,7.19l.02.04Zm-4.29,1.71c-1.21-1.52-3.31-4.31-4.48-6.08l-.09.04v8.96l4.55-2.92h.02Z"/>
      <path class="cls-9" d="m617.13,32.39c0,2.99-2.01,4.44-4.48,4.83v19.02c1.39-1,2.49-2.36,3.07-3.77.06-.13.09-.26.09-.35,0-.19-.19-.32-.19-.56,0-.26.06-.56.41-.56.32,0,.54.26.54.56,0,4.55-3.31,10.37-12.6,10.37-6.64,0-12.12-5.02-12.12-11.99,0-9.33,7.75-12.62,12.99-13.79-1.75-.3-4.2-.71-6.49-.71-4.37,0-5.76,2.08-6.1,3.57l-.45-.24c.09-2.12,1.95-7.9,7.64-7.9s9.13,2.32,13.48,2.32c2.86,0,3.38-1.3,3.64-2.62l.5.19c.04.17.11,1.28.11,1.62h-.02Zm-5.19,24.33v-19.44c-.22,0-.45.04-.69.04-.91,0-1.77-.19-2.86-.39-1.39.67-2.62,2.1-2.62,4.33,0,4.18,2.36,5.17,2.36,9.41,0,3.33-2.81,5.78-5.09,6.9,1.23.45,2.62.65,4.03.65,1.6,0,3.79-.78,4.85-1.52h.02Zm-4.59-20l-.76-.15c-4.61.87-9.96,4.96-9.96,11.69,0,4.44,2.36,7.51,5.69,9.03,1-.69,2.08-1.95,2.08-4.18,0-3.94-2.55-6.1-2.55-9.67,0-2.68,1.75-5.09,5.48-6.71h.02Z"/>
      <path class="cls-9" d="m578.17,55.59c-2.79,1.34-6.38,3.64-8.42,5.48-1.19-.95-2.73-1.93-4.55-1.93-1.71,0-2.23.61-2.23,1.17,0,.37.54.32.54.84,0,.24-.26.54-.56.54-.39,0-.8-.41-.8-1.15,0-1.13.67-2.6,2.73-4.89l3.53-3.92-4.52-2.32v-.26c.37-.11.5-.37.5-.8v-3.38c0-.45-.15-.71-.5-.87v-.26c2.92-1.45,6.28-3.31,8.2-4.93.52.56,1.93,1.36,3.38,1.36,1.21,0,1.36-.37,1.36-.8,0-.24-.19-.35-.19-.5,0-.32.17-.45.41-.45.37,0,.65.26.65.95,0,1.8-1.75,4.03-4.52,4.03-1.99,0-3.22-.63-4.07-1.62l-.19.11v4.98l2.77,1.32,1.17-1.17,5.32,2.71v.26c-.28.13-.45.39-.45.71v3.77c0,.5.19.71.45.8v.26-.04Zm-5.02,1.97v-5.65l-2.62-1.21-5.5,5.84.09.04c.89-.48,2.19-.71,3.98-.71,1.41,0,3.12.78,3.98,1.75l.09-.04-.02-.02Z"/>
      <path class="cls-9" d="m562.87,46.09l-8.85,5.58v3.48c1.1.39,3.48,1.62,4.63,2.27l2.23-2.12c.15-.65.35-1.3,1.02-1.3.32,0,.5.28.5.54,0,.32-.15.56-.3.71l-5.8,5.74c-1.69-1.06-5.45-3.03-7.4-3.87v-.24c.32-.13.56-.54.56-1v-10.93c0-.48-.24-.91-.61-1v-.24c2.58-1.21,6-3.18,8.7-4.87,1.56,2.32,3.83,5.41,5.32,7.19v.04Zm-4.29,1.71c-1.21-1.52-3.31-4.31-4.48-6.08l-.09.04v8.96l4.55-2.92h.02Z"/>
      <path class="cls-9" d="m537.78,46.09l-8.87,5.58v3.48c1.1.39,3.48,1.62,4.63,2.27l2.23-2.12c.15-.69.35-1.3,1.06-1.3.32,0,.45.28.45.54,0,.32-.15.56-.3.71l-5.8,5.78c-1.69-1.08-5.45-3.07-7.4-3.92v-.24c.32-.13.56-.54.56-1v-10.93c0-.48-.24-.91-.61-1v-.24c2.58-1.21,6.04-3.18,8.72-4.87,1.56,2.32,3.83,5.41,5.32,7.19v.04Zm-4.33,1.71c-1.21-1.52-3.31-4.31-4.48-6.08l-.06.04v8.96l4.55-2.92Z"/>
      <path class="cls-9" d="m522.13,59.45c-.13,4.76-2.32,8.25-6.75,8.25-3.48,0-5.65-1.82-8.81-1.82-1.84,0-2.86.61-3.38,1.26l-.5-.41c.67-3.27,2.88-5.35,6-5.35,3.44,0,5.58,2.21,9.22,2.21,1.69,0,2.66-.8,3.16-2.06l-.04-.09c-.54.19-1.1.26-1.62.26-1.88,0-3.57-1.28-3.92-3.42-.89.63-2.68,2.01-3.57,2.77-2.19-1.41-5.56-3.22-7.29-3.98v-.24c.37-.13.61-.48.61-.91v-10.87c0-.63-.24-.97-.69-1.06v-.19c3.07-1.19,6.47-3.22,8.7-4.93,1.9,1.52,5.09,3.72,7.14,4.89v.19c-.28.13-.54.43-.54,1.06v11.93c0,1.49.37,2.27,1.45,2.27.17,0,.37,0,.56-.04l.26.26.02.02Zm-6.8-1.93v-11.62c-1.19-.78-3.96-2.79-5.39-3.92l-.19.15v12.83c1.52.74,4.18,2.36,5.02,2.97l.56-.41Z"/>
      <path class="cls-9" d="m484.52,57.48c-1.28,2.19-2.6,3.83-4.52,3.83-1.52,0-2.6-.87-3.16-2.51l-2.51-7.29h-9.72l-1.41,4.07c1.56.11,2.99,1.06,3.38,1.06.43,0,.8-.35,1.3-1.15l.61.39-3.22,5.17c-.89-.76-2.27-1.56-4.09-1.56-2.51,0-4.09.67-5.24,1.56l-.41-.15c.56-2.71,2.81-5.06,6.71-5.35l6.75-19.83-.24-.69c-.48-1.41-1.39-2.16-2.38-2.16s-1.58.48-1.93.84l-.3-.26c.28-1.56,1.71-3.27,3.92-3.27,1.84,0,3.07.89,3.77,1.97h.09c.32-.84.91-1.52,1.56-1.6l.11.19c-.24.19-.54.93-.54,1.75,0,.41.09.82.24,1.21l7.96,23.57c.19.56.58.84,1.02.84.65,0,1.04-.39,1.56-1.15,0,0,.71.5.71.5Zm-11.12-8.85l-3.87-11.38h-.09l-3.87,11.38h7.83Z"/>
      <path class="cls-9" d="m446.77,55.59c-2.79,1.34-6.38,3.64-8.42,5.48-1.19-.95-2.73-1.93-4.55-1.93-1.71,0-2.25.61-2.25,1.17,0,.37.54.32.54.84,0,.24-.26.54-.56.54-.39,0-.8-.41-.8-1.15,0-1.13.67-2.6,2.73-4.89l3.53-3.92-4.52-2.32v-.26c.37-.11.5-.37.5-.8v-3.38c0-.35-.22-.71-.5-.87v-.26c2.92-1.45,6.28-3.31,8.2-4.93.52.56,1.93,1.36,3.38,1.36,1.21,0,1.36-.37,1.36-.8,0-.24-.19-.35-.19-.5,0-.32.17-.45.41-.45.37,0,.65.26.65.95,0,1.8-1.47,4.03-4.52,4.03-1.99,0-3.22-.63-4.07-1.62l-.19.11v4.98l2.77,1.32,1.17-1.17,5.32,2.71v.3c-.28.13-.45.39-.45.71v3.72c0,.5.22.67.45.8v.26l.02-.04Zm-5.02,1.97v-5.65l-2.62-1.21-5.5,5.84.06.04c.89-.48,2.19-.71,3.98-.71,1.41,0,3.12.78,3.98,1.75l.09-.04v-.02Z"/>
      <path class="cls-9" d="m429.98,56.11c-2.51,1.02-6.64,3.38-8.61,4.93-2.25-1.47-5.19-3.72-7.25-4.89v-.26c.45-.15.56-.56.56-1.15v-9.37c0-.87-.17-1.23-.65-1.32v-.24c2.97-1.17,5.95-2.86,8.61-4.93,1.86,1.47,5.24,3.68,7.19,4.89v.24c-.39.15-.5.5-.5,1v9.91c0,.54.32.87.65,1v.24-.04Zm-5.19,1.77v-12.27c-1.6-.95-4.03-2.62-5.32-3.64l-.24.15v12.19c1.71.95,3.94,2.58,5.39,3.68l.15-.11h.02Z"/>
      <path class="cls-9" d="m413.42,54.06l-3.64,6.99c-1.41-1.19-3.46-2.06-6.19-2.06-4.07,0-9.16,1.06-10.58,1.97l-.5-.54c1.6-1.41,3.27-5.02,3.27-9.35,0-4.57-2.62-6.73-2.62-11.28s2.08-7.27,5.95-9.22l.45.41c-1.39,1.15-2.1,2.53-2.23,4.24l6.67-5.5c1.23,1.19,3.2,2.55,5,2.55,1.36,0,2.06-.28,2.06-.87,0-.32-.26-.41-.26-.61,0-.32.24-.45.5-.45.37,0,.61.43.61.91,0,2.51-2.58,4.63-5.24,4.63-.89,0-1.62-.06-2.27-.26v19.07c.41-.04.76-.06,1.02-.06,2.51,0,4.76,1.06,5.35,1.06.89,0,1.19-.63,1.9-1.97l.76.39v-.06Zm-9.76.69v-19.44c-1-.45-1.82-1.13-2.66-2.08l-3.72,3.01c0,5.58,2.92,8.12,2.92,12.64,0,3.16-2.23,6.45-3.94,8.12l.15.04c2.27-1.3,5.22-1.99,7.25-2.27v-.02Z"/>
    </g>
  </g>
  <g id="content-3" data-name="content">
    <path class="cls-10" d="m12.84,157.78c0,12.19,9.91,22.1,22.1,22.1h20.64c1.3,0,2.3-1.23,2.3-2.3v-40.48c0-2.56,2.07-4.64,4.64-4.64,1.63,0,3.18.9,3.99,2.27l25.93,44.73c.33.56.98.93,1.65.93,1.07,0,1.93-.86,1.93-1.93v-41.36c0-2.56,2.07-4.64,4.64-4.64,1.63,0,3.16.86,3.99,2.27l25.93,44.73c.33.56.98.93,1.65.93,1.07,0,1.93-.86,1.93-1.93v-53.64h-8.13v31.92l-15.2-26.18c-2.16-3.69-6.25-6.01-10.58-6.01-6.8,0-12.32,5.52-12.33,12.33v19.87l-15.25-26.19c-2.16-3.69-6.25-6.01-10.58-6.01-6.8,0-12.32,5.52-12.33,12.33v32.66c0,1.19-.9,2.23-2.2,2.23h-12.54c-7.71,0-13.97-6.25-13.97-13.97s6.25-13.97,13.97-13.97h10.52v-8.13h-10.59c-12.19,0-22.1,9.91-22.1,22.1m124.03-32.96v53.64c0,2.56-2.07,4.64-4.64,4.64-1.63,0-3.18-.9-3.99-2.27l-25.93-44.69c-.33-.56-.98-.93-1.65-.93-1.07,0-1.93.86-1.93,1.93v41.36c0,2.56-2.07,4.64-4.64,4.64-1.63,0-3.14-.88-3.99-2.27l-25.93-44.78c-.33-.56-.98-.93-1.65-.93-1.07,0-1.93.86-1.93,1.93v40.51c0,2.67-2.35,5.01-5.01,5.01h-20.64c-13.7-.02-24.81-11.12-24.82-24.82,0-13.7,11.12-24.81,24.82-24.82h10.59v-8.15h-10.59c-18.2,0-32.96,14.76-32.96,32.96s14.76,32.96,32.96,32.96h20.85c7.91,0,12.98-4.62,12.97-13.16v-18.8l15.25,26.19c2.16,3.67,6.25,6.01,10.58,6.01,6.8,0,12.33-5.52,12.33-12.33v-19.87l15.2,26.19c2.23,3.72,6.24,5.99,10.58,6.01,6.8,0,12.32-5.52,12.33-12.33v-53.83h-8.13l-.02.02Z"/>
  </g>
  <g id="content-4" data-name="content">
    <path class="cls-10" d="m236.75,127.54v1.31l1.23.28c1.87.47,2.15,1.59,2.91,5.15l1.96,10.02-5.45,29.25-7.41-36.75c-.84-4.03-1.12-7.04,1.87-7.69l1.4-.28v-1.29h-17.51v1.31l1.79.47c1.79.47,2.54,1.31,3.75,6.85l11.91,56.38h3.08l7.97-42.59,8.83,42.59h2.43l11.44-54.63c1.31-6.29,1.87-8.08,4.14-8.64l1.79-.47v-1.27h-12.86v1.31l1.96.37c2.82.56,3.47,2.35,2.15,9.56l-7.02,34.77-7.11-36.77c-.78-3.66-1.23-7.04,1.87-7.6l2.07-.37v-1.29h-17.19v.02Zm83.45.19v1.31l2.35.56c2.07.47,2.91,1.23,2.91,3.86v45.5c0,5.06,0,11.72-5.26,11.72-2.99,0-5.34-2.63-5.15-4.42.19-2.91,5.26-2.71,5.54-7.41.28-3.27-1.79-4.8-3.86-5.06-2.91-.37-6.46,2.07-6.57,6.94-.09,6.29,4.03,12,11.07,12,7.78,0,12.86-5.26,12.86-15.29v-43.9c0-2.63.67-3.47,2.54-3.94l2.05-.58v-1.29h-18.48v.02Zm-31.6-.39c-7.97,0-12.47,6.66-12.47,15.38,0,16.22,20.92,22.51,20.92,37.14,0,6.94-2.91,10.79-7.11,10.79-6.29,0-10.79-7.6-11.91-19.69h-1.4v21.39h1.12c.95-3.08,2.15-3.38,3.19-3.38,1.79,0,3.66,3.75,9.09,3.75,8.34,0,13.79-7.22,13.79-17.17,0-19.52-20.92-24.3-20.92-38.26,0-3.19.95-7.88,5.62-7.88,6.76,0,9.67,8.92,10.79,19.69h1.4v-21.41h-1.12c-.47,2.07-1.31,2.99-2.54,2.99-2.13.02-3.23-3.36-8.4-3.36h-.02l-.02.02Zm15.1,18.4v.24h.04l-.02-.22h0l-.02-.02Z"/>
  </g>
  <g id="content-5" data-name="content">
    <g>
      <path class="cls-11" d="m491.97,189.03h21.74v-5.55h-13.79v-5.99h12.64v-5.55h-12.64v-5.87h13.72v-5.5h-21.67v28.46h0Zm92.75-.4h20.98v-5.99h-13.3v-5.38h12.27v-5.48h-12.27v-5.69h13.23v-5.55h-20.91v28.08h0Zm-30.55.16h6.96l.05-21.64,9.42,21.57,10.67-.05v-28.15h-6.93v20.96l-9.38-20.96h-10.81l.05,28.25h0l-.02.02Zm-12.9.05h7.78v-28.32h-7.78v28.32h0Zm-2.51-5.48h-12.71v-22.84h-7.83v28.41l20.56-.09v-5.48h-.02Zm-65.35,5.76h8.06v-23.03h8.95v-5.57h-25.82v5.57h8.84v23.03h-.02Zm-13.42.05l9.09-.05-11.3-28.62h-9.92l-11.49,28.76h8.08l1.9-5.64h11.8l1.83,5.55h0Zm-7.57-23.15l3.74,12.03h-7.83l4.07-12.03h.02Zm-43.61,23.4l13.91-.07c9.23-.05,15.27-4.7,15.27-14.24,0-10.03-5.92-14.55-15.6-14.55h-13.58v28.86h0Zm11.49-23.33c5.52,0,9.07,3.27,9.07,8.86s-3.55,8.86-9.07,8.86h-3.34v-17.72s3.34,0,3.34,0Z"/>
      <path class="cls-11" d="m488.21,145.22l14.9,10.32.28.19c.23.14.38-.09.28-.31-.05-.09-.09-.19-.12-.23-1.53-3.36-6.65-14.36-7.17-15.58-.99-2.28-3.27-3.81-5.71-3.45-2.04.31-3.85,1.83-4.3,3.88-.45,1.97.21,3.81,1.83,5.19h0Zm22.79,12.38h0c2.68-1.9,11.73-8.11,12.85-8.84,2.11-1.32,4.89-1.29,6.7.4,1.5,1.41,2.09,3.71,1.27,5.64-.75,1.88-2.37,3.13-4.49,3.34h-16.5c-.26,0-.28-.26-.07-.4.07-.05.16-.12.21-.14h.02Zm.56-2.07h0l-.28.19c-.23.14-.38-.09-.28-.31.05-.09.09-.19.12-.23v-.05c1.46-3.2,6.56-14.29,7.1-15.53.99-2.28,3.27-3.81,5.71-3.45,2.04.31,3.85,1.83,4.3,3.88.45,1.97-.21,3.81-1.83,5.19l-14.8,10.32h-.02Zm-.35-3.95h0l-.14.33c-.12.23-.38.14-.4-.12,0-.09-.05-.21-.05-.26-.45-2.77-1.67-10.67-2.23-14.36-.09-.59.05-.94.42-1.34.45-.45,1.15-.96,1.74-1.39-.02-.19-.35-.28-.59-.33h-1.9c.14-2,1.2-3.81,3.05-4.61,1.88-.82,4.35-.45,5.78,1.06,1.43,1.46,1.9,3.43,1.27,5.45l-6.96,15.6h0v-.05Zm-7.85,0l.14.33c.12.23.38.14.4-.12,0-.09.05-.21.05-.26.56-3.43,2.3-14.71,2.51-16.03.38-2.47-.73-5.01-3.01-6.02-1.88-.82-4.35-.45-5.78,1.06-1.43,1.46-1.9,3.43-1.27,5.45l7.03,15.77-.07-.19h0Zm0,6.58h.35c.26,0,.28-.26.07-.4-.07-.05-.16-.12-.21-.14-2.68-1.9-11.73-8.13-12.85-8.84-2.11-1.32-4.89-1.29-6.7.4-1.5,1.41-2.09,3.71-1.27,5.64.75,1.88,2.37,3.13,4.49,3.34h16.14-.02Z"/>
    </g>
  </g>
  <path class="cls-10" d="m738.49,20.46v53h53V20.46h-53Zm38.52,40.17h-6.42v-15.78c0-2.38-.37-4.03-1.29-5.13-.91-1.1-2.38-1.65-4.4-1.65-.92,0-2.02.18-2.93.73-1.1.55-1.84,1.1-2.57,2.02v19.44h-6.24v-26.96h4.59l1.1,2.57c1.65-2.02,4.22-2.94,7.7-2.94s5.69.92,7.7,2.94c2.02,2.01,2.76,4.58,2.76,8.07v16.69Z"/>
  <path class="cls-1" d="m822.31,40.27c1.29,1.28,1.84,3.48,1.84,6.78,0,2.94-.55,5.14-1.84,6.61-1.28,1.46-3.3,2.01-6.23,2.01-1.47,0-2.94-.36-4.04-1.46v-14.31c1.1-1.1,2.39-1.65,4.04-1.65,2.93,0,4.95.73,6.23,2.02Z"/>
  <path class="cls-1" d="m791.5,20.46v53.01h53.01V20.46h-53.01Zm35.58,36.87c-2.38,2.56-5.5,3.66-9.72,3.66-1.83,0-3.67-.36-5.5-1.1v11.19h-6.42v-37.78h6.42v1.65c1.65-1.47,3.49-2.2,5.87-2.2,8.62,0,13.02,4.77,13.02,14.3,0,4.41-1.28,7.89-3.67,10.28Z"/>
  <path class="cls-10" d="m844.32,20.46v53.01h53.01V20.46h-53.01Zm33.57,18.71c-1.1-.74-2.39-1.1-3.67-1.1-1.47,0-2.75.73-3.85,2.02-1.1,1.28-1.65,2.93-1.65,4.95v15.4h-6.24v-27.14h6.24v2.57c1.83-2.02,4.03-3.12,6.97-3.12,2.2,0,3.85.37,4.95.92l-2.75,5.5Z"/>
  <path class="cls-10" d="m904.84,23.4c0,1.65-1.28,2.93-2.93,2.93s-2.93-1.28-2.93-2.93,1.47-2.93,3.12-2.93,2.75,1.28,2.75,2.93m-5.14,0c0,1.28,1.1,2.38,2.38,2.38s2.38-1.1,2.38-2.38-1.1-2.38-2.38-2.38-2.38.92-2.38,2.38m1.65,1.65h-.37v-3.3h1.28c.73,0,1.1.37,1.1.92s-.37.92-.73.92l.92,1.47h-.55l-.92-1.47h-.73s0,1.47,0,1.47Zm.55-1.83c.55,0,.92,0,.92-.55,0-.37-.37-.55-.73-.55h-.73v1.1h.55Z"/>
  <g id="Layer_1-2" data-name="Layer 1-2">
    <path class="cls-7" d="m691.93,167.6v-12.71s4.8.03,4.8,5.21-4.8,7.5-4.8,7.5Z"/>
    <path class="cls-7" d="m697.81,170.79v10.94s-3.8-1.87-5.87-1.87v-10.3l2.4-1.73s3.48.8,3.48,2.96Z"/>
    <path class="cls-7" d="m686.47,148.61c-11.46,0-20.73,9.28-20.73,20.72s9.28,20.73,20.73,20.73,20.72-9.28,20.72-20.73-9.28-20.72-20.72-20.72Zm-9.02,5.39c2.01-.14,2.48-.05,3.51.18.99.22,2.99,1.59,6.24.38-.22.18-3.84,3.03-6.41,3.13-2.73.12-4.07-.22-4.07-.22,0,0-3.24-.82-4.67.43.15-.22,2.57-3.71,5.4-3.9Zm14.86,32.55s-4.71-2.69-7.7-2.69-10.12,1.47-10.12,1.47c0,0,5.29-6.21,8.75-6.21s7.59.65,7.59.65v-24.38c-2.44,1.6-2.3,3.84-2.3,3.84,0,0,.03,8.38.03,11.74s-9.33,7.84-9.33,7.84c2.12-1.38,1.65-3.19,1.65-3.19v-11.12c0-4.3,2.8-5.94,2.8-5.94l12.36-7.37s7,3.43,7,7.45-4.47,6.08-4.47,6.08c4.72,0,5.3,4.53,5.3,4.53v9.6l-11.56,7.7Z"/>
    <g class="cls-5">
      <text class="cls-6" transform="translate(720.18 178.46)"><tspan x="0" y="0">Ba</tspan></text>
      <text class="cls-3" transform="translate(752.7 178.46)"><tspan x="0" y="0">k</tspan></text>
      <text class="cls-4" transform="translate(766.76 178.46)"><tspan x="0" y="0">e</tspan></text>
      <text class="cls-6" transform="translate(781.34 178.46)"><tspan x="0" y="0">r</tspan></text>
      <text class="cls-4" transform="translate(791.39 178.46)"><tspan x="0" y="0">s</tspan></text>
      <text class="cls-6" transform="translate(804.81 178.46)"><tspan x="0" y="0">f</tspan></text>
      <text class="cls-2" transform="translate(813.01 178.46)"><tspan x="0" y="0">i</tspan></text>
      <text class="cls-6" transform="translate(819.73 178.46)"><tspan x="0" y="0">e</tspan></text>
      <text class="cls-2" transform="translate(834.28 178.46)"><tspan x="0" y="0">l</tspan></text>
      <text class="cls-2" transform="translate(840.99 178.46)"><tspan x="0" y="0">d</tspan></text>
      <text class="cls-2" transform="translate(856.73 178.46)"><tspan x="0" y="0">.</tspan></text>
      <text class="cls-4" transform="translate(862.75 178.46)"><tspan x="0" y="0">c</tspan></text>
      <text class="cls-2" transform="translate(876.95 178.46)"><tspan x="0" y="0">om</tspan></text>
    </g>
    <path class="cls-7" d="m686.46,136s-1.98,11.13-2.12,11.13h4.24c-.14,0-2.12-11.13-2.12-11.13h0Z"/>
    <path class="cls-7" d="m716.22,169.29s-7.59-1.72-7.59-1.84v3.68c0-.12,7.59-1.84,7.59-1.84Z"/>
    <path class="cls-7" d="m704.91,187.73s-2.13-3.38-2.09-3.43l-.67.67-.67.67s3.43,2.09,3.43,2.09Z"/>
    <path class="cls-7" d="m668.03,187.73s3.38-2.13,3.43-2.09l-.67-.67-.67-.67s-2.09,3.43-2.09,3.43h0Z"/>
    <path class="cls-7" d="m656.71,169.3s7.59,1.72,7.59,1.84v-3.68c0,.12-7.59,1.84-7.59,1.84Z"/>
    <path class="cls-7" d="m667.88,150.92s2.13,3.38,2.09,3.43l.67-.67.67-.67s-3.43-2.09-3.43-2.09h0Z"/>
    <path class="cls-7" d="m705.36,150.92s-3.38,2.13-3.43,2.09l.67.67.67.67s2.09-3.43,2.09-3.43h0Z"/>
    <path class="cls-8" d="m691.93,167.6v-12.71s4.8.03,4.8,5.21-4.8,7.5-4.8,7.5Z"/>
    <path class="cls-8" d="m697.81,170.79v10.94s-3.8-1.87-5.87-1.87v-10.3l2.4-1.73s3.48.8,3.48,2.96Z"/>
    <path class="cls-8" d="m686.47,148.61c-11.46,0-20.73,9.28-20.73,20.72s9.28,20.73,20.73,20.73,20.72-9.28,20.72-20.73-9.28-20.72-20.72-20.72Zm-9.02,5.39c2.01-.14,2.48-.05,3.51.18.99.22,2.99,1.59,6.24.38-.22.18-3.84,3.03-6.41,3.13-2.73.12-4.07-.22-4.07-.22,0,0-3.24-.82-4.67.43.15-.22,2.57-3.71,5.4-3.9Zm14.86,32.55s-4.71-2.69-7.7-2.69-10.12,1.47-10.12,1.47c0,0,5.29-6.21,8.75-6.21s7.59.65,7.59.65v-24.38c-2.44,1.6-2.3,3.84-2.3,3.84,0,0,.03,8.38.03,11.74s-9.33,7.84-9.33,7.84c2.12-1.38,1.65-3.19,1.65-3.19v-11.12c0-4.3,2.8-5.94,2.8-5.94l12.36-7.37s7,3.43,7,7.45-4.47,6.08-4.47,6.08c4.72,0,5.3,4.53,5.3,4.53v9.6l-11.56,7.7Z"/>
    <path class="cls-7" d="m686.47,202.59s1.98-11.13,2.12-11.13h-4.24c.14,0,2.12,11.13,2.12,11.13Z"/>
  </g>
</svg>